<?xml version="1.0" encoding="UTF-8" standalone="no"?>
<svg
   xmlns:dc="http://purl.org/dc/elements/1.1/"
   xmlns:cc="http://creativecommons.org/ns#"
   xmlns:rdf="http://www.w3.org/1999/02/22-rdf-syntax-ns#"
   xmlns:svg="http://www.w3.org/2000/svg"
   xmlns="http://www.w3.org/2000/svg"
   xmlns:sodipodi="http://sodipodi.sourceforge.net/DTD/sodipodi-0.dtd"
   xmlns:inkscape="http://www.inkscape.org/namespaces/inkscape"
   version="1.1"
   width="24"
   height="24"
   viewBox="0 0 24 24"
   id="svg3336"
   inkscape:version="0.91 r13725"
   sodipodi:docname="icon design.svg">
  <metadata
     id="metadata3344">
    <rdf:RDF>
      <cc:Work
         rdf:about="">
        <dc:format>image/svg+xml</dc:format>
        <dc:type
           rdf:resource="http://purl.org/dc/dcmitype/StillImage" />
        <dc:title></dc:title>
      </cc:Work>
    </rdf:RDF>
  </metadata>
  <defs
     id="defs3342" />
  <sodipodi:namedview
     pagecolor="#ffffff"
     bordercolor="#666666"
     borderopacity="1"
     objecttolerance="10"
     gridtolerance="10"
     guidetolerance="10"
     inkscape:pageopacity="0"
     inkscape:pageshadow="2"
     inkscape:window-width="1842"
     inkscape:window-height="1057"
     id="namedview3340"
     showgrid="false"
     inkscape:zoom="16"
     inkscape:cx="9.0103686"
     inkscape:cy="6.575"
     inkscape:window-x="70"
     inkscape:window-y="-8"
     inkscape:window-maximized="1"
     inkscape:current-layer="svg3336" />
  <path
     d="m 8.5,-9.6875 2.5,3 3.5,-4.5 4.5,6 -14,0 m 16,1 0,-14 c 0,-1.11 -0.9,-2 -2,-2 l -14,0 a 2,2 0 0 0 -2,2 l 0,14 a 2,2 0 0 0 2,2 l 14,0 a 2,2 0 0 0 2,-2 z"
     id="path3338"
     inkscape:connector-curvature="0" />
  <g
     id="g3487">
    <path
       sodipodi:nodetypes="sssssssss"
       id="path3338-9-2"
       d="m 47.375,18.75 0,-14 c 0,-1.11 -0.9,-2 -2,-2 l -14,0 c -1.104569,0 -2,0.8954305 -2,2 l 0,14 c 0,1.104569 0.895431,2 2,2 l 14,0 c 1.104569,0 2,-0.895431 2,-2 z"
       inkscape:connector-curvature="0" />
    <path
       style="fill:#ffffff"
       sodipodi:nodetypes="sssssssss"
       id="path3338-9-2-6"
       d="m 45.625,17.388889 0,-11.2777779 C 45.625,5.2169444 44.9,4.5 44.013889,4.5 l -11.277778,0 C 31.846319,4.5 31.125,5.221319 31.125,6.1111111 l 0,11.2777779 C 31.125,18.278681 31.846319,19 32.736111,19 l 11.277778,0 C 44.903681,19 45.625,18.278681 45.625,17.388889 Z"
       inkscape:connector-curvature="0" />
    <path
       style="fill:#ff0000"
       sodipodi:nodetypes="cccccc"
       inkscape:connector-curvature="0"
       id="path3338-8-9"
       d="M 39.217985,8.4551621 36.831652,14.497463 33.13673,12.01735 30.750396,18.05965 46.06102,13.575535 Z" />
    <rect
       transform="matrix(0.95896157,-0.28353607,0.28353607,0.95896157,0,0)"
       y="26.048939"
       x="20.348948"
       height="6.25"
       width="23.0625"
       id="rect3438"
       style="fill:#ff0000" />
  </g>
  <g
     id="g3483">
    <path
       sodipodi:nodetypes="sssssssss"
       id="path3338-9-2-9"
       d="m 21.5,41.125 0,-14 c 0,-1.11 -0.9,-2 -2,-2 l -14,0 c -1.104569,0 -2,0.89543 -2,2 l 0,14 c 0,1.104569 0.895431,2 2,2 l 14,0 c 1.104569,0 2,-0.895431 2,-2 z"
       inkscape:connector-curvature="0" />
    <path
       id="path3338-9-2-6-0"
       d="M 13.34375,30.830078 10.957031,36.873047 7.261719,34.392578 5.25,39.484375 l 0,0.279297 c 0,0.889792 0.721536,1.611328 1.611328,1.611328 l 11.277344,0 c 0.889792,0 1.611328,-0.721536 1.611328,-1.611328 l 0,-4.138672 -6.40625,-4.794922 z"
       style="fill:#ffffff"
       inkscape:connector-curvature="0" />
  </g>
  <g
     id="g3478"
     transform="translate(24.9375,-2.8750138)">
    <path
       sodipodi:nodetypes="sssssssss"
       id="path3338-9"
       d="M -3.0437707,20.541932 -5.0095554,6.6806304 C -5.165414,5.5816271 -6.1814654,4.8268162 -7.2705677,4.9812707 L -21.13187,6.9470554 c -1.093626,0.155096 -1.854455,1.1673858 -1.699359,2.2610123 l 1.965784,13.8613023 c 0.155096,1.093626 1.167387,1.854455 2.261013,1.699359 l 13.8613016,-1.965784 c 1.0936266,-0.155096 1.8544557,-1.167387 1.6993597,-2.261013 z"
       inkscape:connector-curvature="0" />
    <path
       style="fill:#ffffff"
       sodipodi:nodetypes="cccccc"
       inkscape:connector-curvature="0"
       id="path3338-8"
       d="m -9.6666667,12.1875 -3.7916663,4.875 -2.708334,-3.25 -3.791666,4.875 15.1666663,0 z" />
    <path
       id="rect3460"
       d="m -19.890625,19.4375 0.324219,2.289062 c 0.129674,0.914367 0.976258,1.549596 1.890625,1.419922 l 11.5898435,-1.642578 c 0.9143664,-0.129674 1.5495957,-0.976258 1.4199219,-1.890625 l -0.025391,-0.175781 -15.1992184,0 z"
       style="fill:#ffffff"
       inkscape:connector-curvature="0" />
  </g>
</svg>
