<?xml version="1.0" encoding="UTF-8" standalone="no"?>
<svg
   xmlns:dc="http://purl.org/dc/elements/1.1/"
   xmlns:cc="http://creativecommons.org/ns#"
   xmlns:rdf="http://www.w3.org/1999/02/22-rdf-syntax-ns#"
   xmlns:svg="http://www.w3.org/2000/svg"
   xmlns="http://www.w3.org/2000/svg"
   id="svg3336"
   viewBox="0 0 512 512"
   height="512"
   width="512"
   version="1.1">
  <metadata
     id="metadata3344">
    <rdf:RDF>
      <cc:Work
         rdf:about="">
        <dc:format>image/svg+xml</dc:format>
        <dc:type
           rdf:resource="http://purl.org/dc/dcmitype/StillImage" />
        <dc:title></dc:title>
      </cc:Work>
    </rdf:RDF>
  </metadata>
  <defs
     id="defs3342">
    <filter
       id="filter3627"
       style="color-interpolation-filters:sRGB;">
      <feFlood
         id="feFlood3629"
         result="flood"
         flood-color="rgb(0,0,0)"
         flood-opacity="0.498039" />
      <feComposite
         id="feComposite3631"
         result="composite1"
         operator="in"
         in2="SourceGraphic"
         in="flood" />
      <feGaussianBlur
         id="feGaussianBlur3633"
         result="blur"
         stdDeviation="10"
         in="composite1" />
      <feOffset
         id="feOffset3635"
         result="offset"
         dy="10"
         dx="0" />
      <feComposite
         id="feComposite3637"
         result="composite2"
         operator="over"
         in2="offset"
         in="SourceGraphic" />
    </filter>
  </defs>
  <rect
     y="0"
     x="0"
     height="512"
     width="512"
     id="rect3579"
     style="fill:none" />
  <path
     style="fill:#ffffff"
     id="path3338-9"
     d="m 385.49998,44.583334 c -2.82276,-0.170667 -5.72072,-0.07851 -8.62498,0.333333 L 81.166665,86.874998 C 57.835978,90.183713 41.60795,111.7943 44.916667,135.125 l 41.958331,295.70832 c 3.308715,23.3307 24.919312,39.55872 48.250002,36.25 l 295.70832,-41.95833 c 23.3307,-3.30872 39.55872,-24.9193 36.25,-48.24999 L 425.12499,81.166665 C 422.21563,60.651937 405.25943,45.778608 385.49998,44.583334 Z m -59.70833,154.083326 104,138.66667 -323.58332,0 80.91667,-104 57.75,69.33333 80.91665,-104 z m -218.12499,154.66667 324.25001,0 0.54165,3.74999 c 2.76638,19.5065 -10.78517,37.56696 -30.29167,40.33334 l -247.24998,35.04166 c -19.5065,2.76638 -37.56696,-10.78517 -40.33334,-30.29167 l -6.91667,-48.83332 z" />
</svg>
